<?xml version="1.0" encoding="utf-8"?>
<!-- Svg Vector Icons : http://www.onlinewebfonts.com/icon -->
<!DOCTYPE svg PUBLIC "-//W3C//DTD SVG 1.1//EN" "http://www.w3.org/Graphics/SVG/1.1/DTD/svg11.dtd">
<svg version="1.1" xmlns="http://www.w3.org/2000/svg" xmlns:xlink="http://www.w3.org/1999/xlink" x="0px" y="0px" viewBox="0 0 1000 1000" enable-background="new 0 0 1000 1000" xml:space="preserve">
<metadata> Svg Vector Icons : http://www.onlinewebfonts.com/icon </metadata>
<g><g transform="translate(0.000000,511.000000) scale(0.100000,-0.100000)"><path d="M1131.8,3721.2C571.9,3150.7,110.6,2675.3,110.6,2664.8c0-10.6,126.8-133.8,285.2-278.2L681,2129.5l517.6,517.6l521.2,521.2l24.6-528.2c35.2-774.7,165.5-1218.4,507.1-1722c176.1-257.1,616.2-679.6,852.2-813.4L3283.3,2.6l-232.4-151.4c-359.2-232.4-785.3-704.3-982.5-1088.1c-211.3-408.5-292.3-736-324-1288.8l-24.6-447.2l-531.7,531.7l-535.3,531.8l-274.7-302.9L100-2515.2l1031.8-1007.1c566.9-556.4,1035.3-1010.6,1042.3-1010.6c17.6,0,2056.5,2000.1,2056.5,2021.2c0,10.6-116.2,147.9-260.6,302.9l-260.6,281.7l-584.6-581l-584.6-581v387.4c0,214.8,24.7,500,52.8,633.8c151.4,714.8,693.7,1313.5,1408.6,1560l281.7,95.1l2810.1,10.6L9900-391.8V9.6v405H7234.3c-3024.9,3.5-3031.9,3.5-3528.4,250c-563.4,278.2-982.5,816.9-1112.8,1426.2c-31.7,140.9-52.8,436.7-52.8,711.3V3274l566.9-542.3c309.9-295.8,577.5-542.3,591.6-549.3c31.7-10.6,531.7,507.1,531.7,549.3c0,24.7-1852.3,1841.7-1996.6,1954.4l-84.5,66.9L1131.8,3721.2z"/></g></g>
</svg>